<svg width="264" height="72" viewBox="0 0 264 72" fill="none" xmlns="http://www.w3.org/2000/svg">
<path d="M41.6835 0.0177914C43.4895 -0.157619 45.2516 0.982549 45.9609 2.61971C46.6774 4.09608 46.3484 5.95982 45.237 7.15115C44.6155 7.9478 43.665 8.32786 42.8168 8.82485C41.1131 9.83346 39.3876 10.7909 37.6985 11.8214C36.9747 12.238 36.2216 12.6839 35.3588 12.6985C34.0573 12.8812 32.785 12.26 31.8857 11.3537C30.4818 10.0089 30.2625 7.65545 31.3446 6.06214C31.8052 5.33857 32.4999 4.79772 33.2384 4.37382C35.3149 3.18249 37.3988 2.02039 39.4461 0.785212C40.1187 0.361303 40.8719 0.0543353 41.6835 0.0177914Z" fill="white"/>
<path d="M48.8494 9.39505C49.6756 9.34389 50.5896 9.1831 51.3647 9.56315C53.0244 10.2063 54.2674 11.9166 54.1431 13.7291C54.187 15.359 53.0683 16.8061 51.6864 17.5516C48.3376 19.4519 45.018 21.418 41.6619 23.3182C40.1045 24.188 38.591 25.1308 37.0409 26.0079C36.4486 26.3733 35.7467 26.4683 35.0667 26.5049C34.1381 26.5633 33.1949 26.2783 32.4856 25.6717C31.8422 25.1381 31.1768 24.5315 30.9428 23.6983C30.7747 23.1721 30.6431 22.6239 30.6431 22.0684C30.7381 21.1622 30.9867 20.2339 31.579 19.525C32.0177 19.0061 32.5441 18.5602 33.1437 18.2387C36.4413 16.3822 39.6877 14.4381 42.9854 12.5744C44.1626 11.8727 45.369 11.2222 46.5462 10.5133C47.3066 10.1332 48.0012 9.57777 48.8494 9.39505Z" fill="white"/>
<path d="M23.7697 10.411C26.0729 10.1771 28.2519 12.1724 28.3323 14.4674C28.4712 16.0461 27.5719 17.6248 26.2265 18.4214C22.2123 20.7895 18.147 23.0552 14.1328 25.4086C12.0416 26.6365 9.92854 27.8424 7.82274 29.0411C6.87953 29.5673 5.95093 30.2689 4.83953 30.3566C2.72643 30.6563 0.576766 29.0995 0.123436 27.0312C-0.359141 25.204 0.620639 23.2014 2.23654 22.2805C4.80298 20.7675 7.40597 19.3204 9.97972 17.8148C12.8459 16.1849 15.6902 14.5039 18.5491 12.8595C19.8726 12.1432 21.1302 11.3027 22.4975 10.6668C22.8923 10.4768 23.331 10.433 23.7697 10.411Z" fill="white"/>
<path d="M23.3311 24.2243C24.6837 23.9758 26.0803 24.5386 27.0527 25.4668C28.3031 26.6362 28.7198 28.6242 27.996 30.1883C27.7035 30.9484 27.1405 31.5769 26.4971 32.0593C24.7934 33.1045 23.0313 34.0473 21.3203 35.0705C16.2971 37.9063 11.3544 40.8737 6.33116 43.6949C5.28557 44.265 3.98407 44.3454 2.87268 43.9361C1.80516 43.5122 0.898502 42.6936 0.386677 41.663C-0.344501 40.0843 0.0137762 38.0817 1.22753 36.8319C1.87828 36.1961 2.71183 35.8233 3.47956 35.3556C4.83956 34.6028 6.14105 33.7476 7.51566 33.0314C12.166 30.3491 16.8089 27.6521 21.4665 24.9771C22.0515 24.6629 22.6584 24.3266 23.3311 24.2243Z" fill="white"/>
<path d="M37.5088 29.918C39.388 29.6256 41.2744 30.8681 42.0494 32.5565C42.7294 34.0767 42.3785 35.9404 41.2305 37.1391C40.7845 37.6945 40.1338 38.0088 39.5342 38.3669C38.7372 38.842 37.9256 39.2878 37.1359 39.7702C36.4413 40.2087 35.5858 40.3257 34.7742 40.333C32.9463 40.2672 31.2646 38.9005 30.8112 37.1318C30.219 35.268 31.2207 33.1704 32.8805 32.2276C33.8456 31.6575 34.8254 31.102 35.8052 30.5466C36.3243 30.2396 36.902 29.9838 37.5088 29.918Z" fill="white"/>
<path d="M23.4771 38.0381C25.3709 37.753 27.3158 38.959 28.047 40.7058C28.3833 41.6705 28.5076 42.7815 28.1055 43.7462C27.7107 44.9449 26.7162 45.8073 25.6487 46.4066C24.1059 47.269 22.5924 48.168 21.0569 49.0524C16.2165 51.7712 11.4493 54.6144 6.63079 57.3625C5.9581 57.7279 5.2123 57.991 4.43725 58.0056C2.49232 58.0787 0.613192 56.6535 0.152549 54.7605C-0.351964 52.9699 0.496199 50.9088 2.10479 49.9879C6.05315 47.6564 10.0527 45.4199 14.0157 43.1104C16.4871 41.6413 18.995 40.2453 21.4737 38.7982C22.0733 38.4108 22.7606 38.1331 23.4771 38.0381Z" fill="white"/>
<path d="M70.1208 12.6819C72.256 12.6406 74.405 12.5717 76.5402 12.6406C77.0775 12.5993 77.0637 13.4255 77.0637 13.7284C77.1464 16.028 77.0637 18.3138 77.0913 20.6134C77.0637 21.9767 77.1877 23.3812 76.8157 24.7169C76.9259 24.8133 77.0362 24.8959 77.1464 24.9923C79.8051 21.7977 84.9572 21.1367 88.3598 23.5189C90.8394 25.1438 92.3547 27.9666 92.6853 30.8583C92.892 33.5986 92.9746 36.504 91.8175 39.0652C90.5088 42.2323 87.5332 44.766 84.0893 45.248C82.3398 45.5785 80.4939 45.2755 78.8959 44.5319C77.7249 43.9398 76.9122 42.8795 75.9754 41.9983C75.8652 42.9484 75.9479 43.9261 75.631 44.8487C73.7713 44.8349 71.9116 44.8349 70.0657 44.8211C69.9692 44.7247 69.8728 44.6283 69.7764 44.5319C70.0106 40.0567 69.8177 35.5677 69.9279 31.0786C69.9003 27.7325 69.8315 24.3726 69.983 21.0265C69.9003 18.245 69.8452 15.4497 70.1208 12.6819ZM80.177 27.7188C78.5377 28.0768 77.2841 29.6053 77.1326 31.2577C77.0224 32.8825 77.0224 34.5349 77.1326 36.1598C77.1877 37.6332 78.2897 38.8862 79.5847 39.4783C81.3755 40.3183 83.6623 39.5059 84.723 37.881C86.1143 35.485 86.0455 32.4556 84.9572 29.9495C84.1444 28.1732 82.0643 27.2368 80.177 27.7188Z" fill="white"/>
<path d="M110.181 12.6268C112.288 12.6543 114.396 12.5579 116.504 12.6543C116.642 12.6681 116.779 12.6956 116.903 12.7645C117.193 13.8385 117.151 14.9677 117.193 16.0693C117.206 19.0574 117.206 22.0317 117.096 25.0198C118.074 24.4277 118.735 23.4087 119.81 22.968C122.207 21.8527 125.127 21.7563 127.511 22.968C130.252 24.4414 132.263 27.2367 132.649 30.335C133.379 34.3696 132.8 38.9275 129.99 42.0808C127.593 44.8073 123.571 46.0879 120.072 44.9725C118.488 44.4768 117.261 43.2788 116.228 42.0257C116.063 42.9346 115.939 43.8434 115.815 44.766C113.845 44.8761 111.875 44.8624 109.905 44.8211C110.071 35.0581 110.002 25.2952 110.002 15.5185C110.029 14.5546 109.974 13.5769 110.181 12.6268ZM120.265 27.7049C118.364 28.0629 116.972 30.1284 117.165 32.0425C117.138 33.6673 117.082 35.2922 117.289 36.9033C117.647 38.4731 119.19 39.492 120.705 39.7812C121.876 39.8638 123.102 39.4783 124.067 38.8036C125.83 36.9033 125.995 34.0804 125.554 31.6431C125.334 30.1147 124.397 28.7101 123.047 27.9528C122.193 27.5397 121.201 27.5948 120.265 27.7049Z" fill="white"/>
<path d="M245.472 12.6128C246.684 12.6128 247.896 12.6266 249.122 12.6403C249.219 12.7367 249.301 12.8331 249.398 12.9295C249.384 17.2946 249.508 21.6735 249.343 26.0386C250.61 24.7442 251.946 23.4222 253.709 22.8439C256.919 21.4669 260.942 22.9678 262.65 25.9697C263.559 27.4018 263.862 29.123 263.876 30.7892C263.945 35.3746 263.766 39.9463 264 44.5317C263.903 44.6281 263.807 44.7245 263.711 44.8209C262.498 44.8346 261.286 44.8484 260.074 44.8484C260.019 44.5454 259.964 44.2287 259.964 43.9258C260.032 40.0014 260.074 36.0907 260.005 32.1662C259.826 30.6653 259.771 28.9991 258.806 27.7598C258.187 26.548 256.823 26.0661 255.569 25.9009C252.525 25.474 249.494 28.1454 249.453 31.2023C249.315 35.7464 249.563 40.3043 249.343 44.8484C247.993 44.8209 246.629 44.8484 245.292 44.6694C245.306 34.9891 245.306 25.3087 245.292 15.6284C245.306 14.637 245.237 13.618 245.472 12.6128Z" fill="white"/>
<path d="M100.565 13.1224C102.259 12.7093 104.105 13.6456 104.78 15.243C105.662 16.854 104.698 19.0297 103.086 19.7457C101.212 20.7785 98.4847 19.8972 97.7684 17.8179C97.5204 16.8403 97.4929 15.7111 98.0439 14.8299C98.6362 13.9899 99.5179 13.2463 100.565 13.1224Z" fill="white"/>
<path d="M214.49 14.3478C215.909 13.9485 217.658 15.0914 217.603 16.6199C217.879 17.9694 216.667 19.2775 215.33 19.3188C213.994 19.5804 212.52 18.4375 212.63 17.033C212.369 15.8075 213.374 14.6645 214.49 14.3478Z" fill="white"/>
<path d="M142.746 22.486C145.102 22.004 147.499 22.7063 149.634 23.6564C149.455 24.7167 149.028 25.7082 148.67 26.7271C147.182 26.1626 145.681 25.4328 144.041 25.5429C142.65 25.4052 140.928 26.2727 140.721 27.7737C140.432 28.6963 140.735 29.729 141.41 30.39C142.512 31.2988 143.862 31.7807 145.171 32.2764C146.893 33.0063 148.766 33.8875 149.675 35.6226C150.846 37.454 150.833 39.9877 149.648 41.8053C148.684 43.6505 146.672 44.7246 144.675 45.0963C141.741 45.7848 138.572 45.234 135.982 43.7193C136.285 42.7554 136.685 41.8328 136.85 40.8276C138.228 41.1168 139.454 41.9292 140.873 42.0807C142.374 42.3148 144.124 42.3561 145.377 41.3371C146.287 40.6899 146.7 39.4919 146.466 38.4041C146.342 37.33 145.46 36.5452 144.551 36.0632C142.691 35.1268 140.584 34.6174 138.944 33.2541C137.787 32.3591 136.768 31.0647 136.699 29.5362C136.409 27.9114 136.988 26.259 137.98 24.9783C139.151 23.6013 140.928 22.7201 142.746 22.486Z" fill="white"/>
<path d="M183.261 22.3621C184.942 22.2658 186.65 22.6238 188.179 23.326C189.749 24.1936 191.072 25.6532 191.527 27.4158C191.871 28.6964 192.105 30.032 192.119 31.3677C192.202 35.8568 191.954 40.3458 192.381 44.8211C191.155 44.8348 189.915 44.8899 188.689 44.7797C188.579 43.9948 188.468 43.2237 188.344 42.4526C188.275 42.4388 188.124 42.4251 188.055 42.4251C185.934 45.0276 182.118 46.143 178.949 44.945C177.145 44.1738 175.547 42.6454 175.106 40.69C174.555 38.4731 175.051 35.9256 176.69 34.2732C178.343 32.4831 180.754 31.6569 183.11 31.2989C184.735 30.8858 186.402 30.8996 188.069 30.8445C188.055 29.6603 187.848 28.4623 187.27 27.4295C186.719 26.5895 185.81 26.0112 184.859 25.722C183.22 25.4879 181.512 25.4604 179.955 26.0663C179.046 26.3141 178.219 26.7548 177.324 27.044C177.035 26.1627 176.731 25.2676 176.483 24.3726C178.495 23.0231 180.905 22.5825 183.261 22.3621ZM180.451 35.4024C179.239 36.3938 178.77 38.1288 179.156 39.6297C179.404 41.1582 180.919 42.3562 182.476 42.2323C184.832 42.5215 187.16 40.9517 187.917 38.7347C188.275 37.1925 188.096 35.5814 188.11 34.0116C188.014 33.9014 187.904 33.805 187.807 33.6949C185.314 33.8326 182.6 33.9152 180.451 35.4024Z" fill="white"/>
<path d="M205.15 23.1607C206.39 22.5961 207.892 22.0178 209.242 22.5824C209.214 23.8217 209.214 25.0747 209.173 26.314C207.712 26.1901 206.156 26.3278 204.944 27.2228C203.428 28.4071 202.643 30.3486 202.533 32.2351C202.312 36.435 202.615 40.6624 202.354 44.8622C200.962 44.8071 199.557 44.9173 198.18 44.6832C198.221 37.3989 198.138 30.1145 198.221 22.844C199.213 22.8164 200.218 22.7614 201.224 22.8164C201.555 22.8164 201.789 23.1194 201.844 23.4086C201.927 24.4964 201.83 25.5842 201.761 26.6583C201.858 26.6583 202.064 26.6445 202.161 26.6445C202.891 25.3088 203.704 23.8905 205.15 23.1607Z" fill="white"/>
<path d="M229.726 22.4172C231.792 22.1693 233.969 22.5824 235.746 23.684C237.193 24.6755 238.281 26.2039 238.639 27.9252C239.176 29.853 239.066 31.8634 239.094 33.8463C239.107 37.0134 238.983 40.1943 239.218 43.3476C239.259 43.8571 239.259 44.3804 239.19 44.8761C238.184 44.8761 237.179 44.9036 236.187 44.8485C235.884 44.8761 235.691 44.5731 235.65 44.3115C235.498 43.6505 235.471 42.9758 235.374 42.3286C233.928 43.3751 232.591 44.7522 230.759 45.0964C228.087 45.8813 224.794 45.1377 223.114 42.7968C222.618 42.0119 222.163 41.1719 221.984 40.2493C221.364 37.4127 222.838 34.3282 225.318 32.8962C228.266 31.1336 231.82 31.0097 235.14 30.7618C234.92 29.5638 234.851 28.2694 234.134 27.2367C233.308 26.0662 231.834 25.4328 230.415 25.5705C228.293 25.4191 226.268 26.1626 224.367 27.0301C224.064 26.1351 223.747 25.24 223.458 24.345C225.345 23.147 227.55 22.6375 229.726 22.4172ZM228.5 34.8102C227.164 35.4298 225.979 36.6829 226.034 38.2527C226.048 39.3543 226.131 40.69 227.136 41.3785C228.39 42.5352 230.263 42.3148 231.779 41.9155C233.68 41.1857 235.154 39.2166 235.099 37.1373C235.099 35.9806 235.25 34.824 235.071 33.6673C232.867 33.9427 230.525 33.7637 228.5 34.8102Z" fill="white"/>
<path d="M97.9341 22.7202C100.207 22.6651 102.48 22.6514 104.739 22.7064C104.863 29.1646 104.698 35.6365 104.836 42.0946C104.918 44.1051 104.657 46.1155 104.133 48.0571C103.472 50.0124 102.149 51.7474 100.386 52.8352C98.2647 54.2398 95.6198 54.4739 93.1401 54.4739C92.7957 52.7113 92.6993 50.9212 92.4927 49.1311C93.884 48.8144 95.4682 48.6492 96.529 47.6026C97.7825 46.1155 97.7274 44.0637 97.879 42.2323C97.9754 35.7329 97.8239 29.2334 97.9341 22.7202Z" fill="white"/>
<path d="M152.555 22.8991C153.946 22.9129 155.351 22.8716 156.742 22.8027C157.721 24.3174 158.079 26.1213 158.781 27.7737C160.145 31.6431 161.812 35.4161 162.9 39.3818C162.955 39.5746 163.079 39.7674 163.3 39.7949C163.699 38.8586 163.796 37.812 164.126 36.8619C164.994 34.2869 165.793 31.6844 166.73 29.1369C167.419 27.1265 167.928 25.0335 168.838 23.1057C169.017 22.6926 169.526 22.8991 169.885 22.8716C170.987 22.8578 172.089 22.8027 173.191 22.9129C171.923 26.3141 170.573 29.6877 169.32 33.1027C167.598 37.4953 166.082 41.9844 163.989 46.2255C162.762 48.7041 161.22 51.1001 158.988 52.7938C157.734 53.7577 156.288 54.6803 154.662 54.7492C154.318 53.6338 153.96 52.5184 153.753 51.3617C155.503 50.6732 157.238 49.7507 158.451 48.2635C159.415 47.0793 160.407 45.7987 160.751 44.2702C160.765 43.2787 160.214 42.4388 159.87 41.5437C157.969 36.7104 156.012 31.9047 154.098 27.0852C153.56 25.6944 152.927 24.345 152.555 22.8991Z" fill="white"/>
<path d="M213.058 23.0093C214.325 22.8441 215.606 22.8441 216.887 22.8303C216.984 22.9267 217.066 23.0369 217.163 23.1333C217.149 30.3763 217.287 37.6331 217.094 44.8761C215.744 44.8486 214.38 44.8761 213.044 44.6971C213.071 37.4679 213.058 30.2386 213.058 23.0093Z" fill="white"/>
<path d="M118.473 60.9042C120.65 60.436 122.895 61.8268 123.611 63.8923C124.479 66.0404 124.066 68.6705 122.441 70.3642C120.815 71.9202 117.908 72.2369 116.241 70.5707C114.382 69.1524 113.913 66.3984 114.712 64.2778C115.181 62.5428 116.696 61.152 118.473 60.9042ZM118.198 62.1297C115.732 63.3277 115.346 66.8528 116.682 69.0423C117.509 70.5983 119.864 70.9425 121.146 69.7583C122.289 68.6842 122.592 67.0043 122.385 65.5171C122.399 63.4241 120.347 61.4137 118.198 62.1297Z" fill="white"/>
<path d="M179.899 61.703C181.249 60.5877 183.205 60.629 184.735 61.3312C184.611 61.6893 184.555 62.1299 184.432 62.5155C183.605 62.3502 182.765 62.1024 181.924 62.0748C181.167 62.2125 180.34 62.8597 180.437 63.6997C180.561 64.5947 181.428 65.0904 182.2 65.3934C183.357 65.8753 184.79 66.5088 185.107 67.8582C185.602 69.4142 184.445 71.1217 182.902 71.466C181.539 71.8515 180.147 71.4797 178.811 71.1493C178.825 70.7224 178.866 70.2817 178.949 69.8686C180.065 70.0614 181.18 70.7361 182.338 70.3506C183.536 70.2542 184.156 68.6569 183.426 67.7481C182.806 66.9219 181.704 66.7979 180.864 66.3022C179.872 65.8478 179.114 64.9252 178.935 63.8649C178.921 63.0249 179.431 62.3089 179.899 61.703Z" fill="white"/>
<path d="M224.491 61.0145C224.945 60.9594 225.414 60.9318 225.882 60.9731C225.882 62.4052 225.882 63.8373 225.882 65.2694C227.535 65.3658 229.216 65.4071 230.869 65.2694C230.786 63.9888 230.704 62.6944 230.786 61.4138C230.869 60.7253 231.737 60.9456 232.219 60.9731C232.205 64.4845 232.219 67.9958 232.205 71.5072C231.709 71.4521 230.773 71.5898 230.745 70.8738C230.759 69.4692 230.841 68.0647 230.855 66.6602C229.436 66.4398 227.99 66.5913 226.557 66.5775C226.254 66.5775 225.813 66.6326 225.8 67.0044C225.758 68.3676 225.992 69.7446 225.841 71.1079C225.689 71.7688 224.932 71.397 224.477 71.342C224.505 67.9132 224.491 64.4707 224.491 61.0145Z" fill="white"/>
<path d="M102.893 61.0144C103.43 60.9869 103.981 60.9593 104.519 60.9456C105.249 62.653 105.841 64.4294 106.434 66.1919C106.778 67.1007 106.805 68.0922 107.191 68.9872C107.604 68.5328 107.797 67.9407 108.032 67.3761C108.789 65.228 109.533 63.0661 110.373 60.9456C110.787 60.9456 111.613 60.9456 112.013 60.9456C112.219 62.6117 112.247 64.2917 112.398 65.9716C112.522 67.7342 112.784 69.483 112.743 71.2455C112.398 71.5485 111.531 71.6035 111.324 71.0803C111.2 68.5328 111.007 65.9854 110.897 63.4379C110.153 64.1677 110.07 65.2418 109.753 66.1782C109.147 67.9545 108.555 69.717 107.825 71.4521C107.439 71.3281 107.109 71.3695 106.737 71.2868C105.869 68.7256 105.001 66.1644 104.229 63.5756C104.119 63.5756 103.913 63.5619 103.816 63.5619C103.775 64.1402 103.734 64.7185 103.747 65.3106C103.857 67.3348 103.637 69.3453 103.513 71.3557C103.059 71.3557 102.618 71.4108 102.163 71.4245C102.328 67.9545 102.466 64.4707 102.893 61.0144Z" fill="white"/>
<path d="M125.954 61.0695C127.345 61.0007 128.764 60.8217 130.142 61.0833C131.244 61.4964 132.401 62.5567 132.194 63.8511C132.057 64.7048 131.409 65.2969 130.72 65.7513C131.271 66.3572 132.084 66.7565 132.373 67.5552C133.076 69.18 131.754 71.1216 130.073 71.3695C128.682 71.5485 127.235 71.6862 125.844 71.3832C125.94 67.9407 125.885 64.4982 125.954 61.0695ZM127.373 62.1436C127.373 63.2176 127.263 64.3192 127.414 65.4071C128.406 65.2556 129.715 65.6274 130.362 64.6497C130.831 64.1953 130.955 63.438 130.486 62.9422C129.811 61.8544 128.434 62.116 127.373 62.1436ZM127.4 66.3847C127.221 67.7067 127.304 69.0561 127.318 70.3918C128.447 70.4331 129.825 70.5571 130.638 69.6069C131.106 69.1525 130.927 68.4365 130.941 67.8719C130.541 66.3434 128.599 66.6051 127.4 66.3847Z" fill="white"/>
<path d="M134.564 61.0143C134.991 60.9867 135.432 61.0005 135.873 61.0005C135.955 64.4981 135.914 67.9957 135.914 71.507C135.459 71.507 134.991 71.4795 134.536 71.3969C134.55 67.9268 134.495 64.4706 134.564 61.0143Z" fill="white"/>
<path d="M138.476 60.8767C138.903 61.0006 139.481 60.8492 139.881 61.1383C140.005 61.4275 140.046 61.7304 140.032 62.0609C140.142 64.7736 139.991 67.5001 140.005 70.2128C141.41 70.2403 142.815 70.1852 144.22 70.1715C144.33 70.5708 144.399 70.9013 144.496 71.3282C142.47 71.4383 140.445 71.4245 138.42 71.3832C138.572 67.8856 138.503 64.3881 138.476 60.8767Z" fill="white"/>
<path d="M146.135 60.9593C147.913 60.9868 149.69 60.8629 151.467 60.9868C151.99 61.1383 151.797 61.7993 151.756 62.1986C150.337 62.1986 148.904 62.171 147.485 62.2812C147.485 63.2864 147.499 64.3054 147.527 65.3244C148.849 65.3519 150.172 65.3657 151.494 65.3795C151.536 65.7237 151.591 66.0817 151.646 66.4398C150.282 66.5775 148.904 66.6188 147.541 66.6601C147.499 67.8168 147.499 68.9734 147.485 70.1439C149.001 70.4331 150.557 70.075 152.073 70.3504C152.059 70.6121 152.018 71.1353 151.99 71.397C149.993 71.4383 148.009 71.452 146.012 71.397C145.998 69.1525 146.177 66.9217 146.108 64.6772C146.135 63.4379 145.956 62.1848 146.135 60.9593Z" fill="white"/>
<path d="M157.734 60.9595C158.134 60.9595 158.946 60.9595 159.346 60.9595C160.076 62.6807 160.558 64.4846 161.219 66.2334C161.578 67.156 161.674 68.1474 162.046 69.07C162.569 68.4504 162.68 67.6242 162.955 66.8806C163.603 64.9252 164.443 63.0387 165.021 61.0559C165.641 61.0145 166.247 60.987 166.867 60.9732C167.129 64.4295 167.294 67.8996 167.57 71.3558C167.088 71.3696 166.619 71.4109 166.137 71.4384C165.876 69.9375 165.986 68.3953 165.862 66.8668C165.752 65.7239 165.903 64.5121 165.517 63.4105C164.842 64.7325 164.622 66.2058 164.043 67.5691C163.547 68.7533 163.286 70.0339 162.638 71.1493C162.39 71.6588 161.536 71.5073 161.426 70.9703C160.641 68.8084 159.842 66.6327 159.291 64.402C159.194 64.0715 159.057 63.741 158.933 63.4243C158.685 63.8925 158.519 64.402 158.561 64.939C158.561 66.977 158.533 69.0287 158.271 71.0391C158.065 71.6863 157.28 71.466 156.797 71.3558C156.852 70.1028 157.087 68.8635 157.183 67.6242C157.335 65.421 157.252 63.1627 157.734 60.9595Z" fill="white"/>
<path d="M172.405 60.9593C172.791 60.9593 173.576 60.9456 173.962 60.9456C174.83 62.832 175.34 64.8562 176.083 66.784C176.552 68.3676 177.282 69.8823 177.599 71.5209C177.103 71.397 176.524 71.5072 176.07 71.218C175.629 70.3505 175.491 69.359 175.037 68.5053C174.72 67.9683 173.976 68.2161 173.466 68.1473C172.805 68.2574 171.923 67.9269 171.372 68.4227C170.863 69.359 170.683 70.4469 170.243 71.4245C169.774 71.3832 169.361 71.4245 168.893 71.397C169.609 68.8633 170.615 66.4123 171.4 63.9061C171.73 62.9284 172.033 61.937 172.405 60.9593ZM172.612 64.1815C172.392 65.1454 172.006 66.068 171.813 67.0319C172.764 67.0594 173.742 67.1696 174.692 66.963C174.182 65.5723 173.742 64.1402 173.191 62.777C172.929 63.2176 172.736 63.6858 172.612 64.1815Z" fill="white"/>
<path d="M187.242 60.9732C187.655 60.9319 188.137 60.9869 188.578 60.9732C188.785 63.9062 188.605 66.853 188.688 69.786C188.647 70.144 189.06 70.2679 189.349 70.2817C190.562 70.2679 191.774 70.1991 192.986 70.1853C192.986 70.5984 192.986 71.0115 192.986 71.4246C191.058 71.4246 189.143 71.4384 187.214 71.3971C187.159 67.9133 187.076 64.4432 187.242 60.9732Z" fill="white"/>
<path d="M197.091 62.0612C197.339 61.5655 197.463 60.574 198.317 60.9458C199.13 60.6567 199.337 61.5379 199.557 62.0612C200.522 65.0355 201.541 67.9961 202.629 70.9291C202.739 71.7966 201.582 71.4248 201.086 71.3284C200.783 70.3094 200.549 69.2491 200.081 68.2852C199.378 68.0925 198.621 68.1613 197.904 68.12C197.45 68.1475 196.664 67.9685 196.403 68.5331C196.017 69.4557 195.838 70.4609 195.383 71.356C195.025 71.3835 194.323 71.4524 193.964 71.4799C194.956 68.3266 196.168 65.2421 197.091 62.0612ZM197.794 63.8513C197.546 64.9254 197.119 65.9581 196.899 67.0459C197.849 67.0872 198.8 67.0872 199.764 67.0459C199.378 65.5863 198.8 64.1956 198.359 62.7635C198.097 63.0939 197.877 63.452 197.794 63.8513Z" fill="white"/>
<path d="M204.462 60.9593C204.902 60.9456 205.398 61.0007 205.839 61.0007C205.881 62.419 205.894 63.851 205.894 65.2694C207.437 65.3657 208.994 65.3795 210.551 65.3657C210.633 65.2556 210.73 65.1592 210.812 65.049C210.826 63.6858 210.688 62.3088 210.798 60.9456C211.239 60.9318 211.721 60.9869 212.176 60.9869C212.245 64.2366 212.231 67.4863 212.231 70.736C212.204 70.9564 212.259 71.2455 212.038 71.3832C211.639 71.576 211.17 71.4383 210.743 71.4108C210.771 69.9925 210.812 68.5604 210.785 67.1421C210.812 66.729 210.316 66.3296 209.889 66.605C208.539 66.5775 207.189 66.5087 205.839 66.5775C205.825 68.1886 205.894 69.7859 205.839 71.397C205.371 71.4246 204.902 71.4383 204.42 71.397C204.462 67.927 204.227 64.4294 204.462 60.9593Z" fill="white"/>
<path d="M217.562 60.9456C217.962 60.9456 218.747 60.9593 219.146 60.9593C219.987 63.0937 220.579 65.3244 221.392 67.4725C221.778 68.822 222.425 70.1026 222.687 71.4796C222.191 71.3281 221.364 71.6173 221.048 71.039C220.662 70.1715 220.579 69.1938 220.097 68.3814C219.973 68.1473 219.684 68.161 219.45 68.1473C218.651 68.1473 217.852 68.106 217.053 68.161C216.57 68.1748 216.378 68.6981 216.24 69.0836C216.006 69.8823 215.744 70.6947 215.413 71.4658C214.917 71.4108 214.449 71.397 213.967 71.3281C215.248 67.8994 216.281 64.3743 217.562 60.9456ZM218.017 63.0386C217.672 64.3881 217.245 65.71 216.86 67.0319C217.796 67.1007 218.733 67.0594 219.67 67.087C219.436 65.6824 218.802 64.3881 218.43 63.0248C218.334 63.0248 218.127 63.0386 218.017 63.0386Z" fill="white"/>
</svg>
